<svg id="Logo" xmlns="http://www.w3.org/2000/svg" xmlns:xlink="http://www.w3.org/1999/xlink" viewBox="0 0 897 264.93"><defs><style>.cls-1{font-size:133.04px;font-family:Orbitron-Bold, Orbitron;font-weight:700;}.cls-2{letter-spacing:-0.02em;}.cls-3{letter-spacing:-0.02em;}.cls-4{letter-spacing:-0.02em;}.cls-5{letter-spacing:-0.04em;}.cls-6{fill:url(#linear-gradient);}.cls-7{fill:url(#linear-gradient-2);}.cls-8{fill:url(#linear-gradient-3);}.cls-9{fill:url(#linear-gradient-4);}.cls-10{fill:url(#linear-gradient-5);}.cls-11{fill:url(#linear-gradient-6);}.cls-12{fill:url(#linear-gradient-7);}.cls-13{fill:url(#linear-gradient-8);}.cls-14{fill:url(#linear-gradient-9);}.cls-15{fill:url(#linear-gradient-10);}</style><linearGradient id="linear-gradient" x1="568.07" y1="-43.05" x2="562.07" y2="168.95" gradientUnits="userSpaceOnUse"><stop offset="0" stop-color="#cce0f4"/><stop offset="0.04" stop-color="#cad7f5"/><stop offset="0.1" stop-color="#c6bdf7"/><stop offset="0.18" stop-color="#be94fb"/><stop offset="0.25" stop-color="#b668ff"/><stop offset="0.54" stop-color="#5a38c1"/><stop offset="0.75" stop-color="#1d1897"/><stop offset="1" stop-color="#0b1d9d"/></linearGradient><linearGradient id="linear-gradient-2" x1="567.4" y1="-43.07" x2="561.4" y2="168.93" xlink:href="#linear-gradient"/><linearGradient id="linear-gradient-3" x1="566.72" y1="-43.09" x2="560.72" y2="168.91" xlink:href="#linear-gradient"/><linearGradient id="linear-gradient-4" x1="566.05" y1="-43.11" x2="560.05" y2="168.89" xlink:href="#linear-gradient"/><linearGradient id="linear-gradient-5" x1="565.37" y1="-43.13" x2="559.37" y2="168.87" xlink:href="#linear-gradient"/><linearGradient id="linear-gradient-6" x1="564.7" y1="-43.15" x2="558.7" y2="168.85" xlink:href="#linear-gradient"/><linearGradient id="linear-gradient-7" x1="564.03" y1="-43.16" x2="558.03" y2="168.84" xlink:href="#linear-gradient"/><linearGradient id="linear-gradient-8" x1="563.35" y1="-43.18" x2="557.35" y2="168.82" xlink:href="#linear-gradient"/><linearGradient id="linear-gradient-9" x1="562.68" y1="-43.2" x2="556.68" y2="168.8" xlink:href="#linear-gradient"/><linearGradient id="linear-gradient-10" x1="562.01" y1="-43.22" x2="556.01" y2="168.78" xlink:href="#linear-gradient"/></defs><title>Logo</title><text class="cls-1" transform="translate(0 234.34)">pur<tspan class="cls-2" x="251.04" y="0">e</tspan><tspan class="cls-3" x="340.3" y="0">v</tspan><tspan x="443.4" y="0">o</tspan></text><text class="cls-1" transform="translate(583.46 233.91)"><tspan class="cls-4">u</tspan><tspan class="cls-5" x="89.13" y="0">m</tspan><tspan x="214.06" y="0">e</tspan></text><g id="L_eq" data-name="L eq"><rect class="cls-6" x="537.9" y="214.42" width="45.27" height="17.47"/><rect class="cls-7" x="537.9" y="190.59" width="45.27" height="17.47"/><rect class="cls-8" x="537.9" y="166.77" width="45.27" height="17.47"/><rect class="cls-9" x="537.9" y="142.95" width="45.27" height="17.47"/><rect class="cls-10" x="537.9" y="119.12" width="45.27" height="17.47"/><rect class="cls-11" x="537.9" y="95.3" width="45.27" height="17.47"/><rect class="cls-12" x="537.9" y="71.47" width="45.27" height="17.47"/><rect class="cls-13" x="537.9" y="47.65" width="45.27" height="17.47"/><rect class="cls-14" x="537.9" y="23.82" width="45.27" height="17.47"/><rect class="cls-15" x="537.9" width="45.27" height="17.47"/></g></svg>