<svg id="Logo" xmlns="http://www.w3.org/2000/svg" xmlns:xlink="http://www.w3.org/1999/xlink" viewBox="0 0 876.68 170.44"><defs><style>.cls-1{stroke:#000;stroke-miterlimit:10;}.cls-2{fill:url(#linear-gradient);}.cls-3{fill:url(#linear-gradient-2);}.cls-4{fill:url(#linear-gradient-3);}.cls-5{fill:url(#linear-gradient-4);}.cls-6{fill:url(#linear-gradient-5);}.cls-7{fill:url(#linear-gradient-6);}</style><linearGradient id="linear-gradient" x1="558.69" y1="-43.13" x2="552.69" y2="168.87" gradientUnits="userSpaceOnUse"><stop offset="0" stop-color="#cce0f4"/><stop offset="0.04" stop-color="#cad7f5"/><stop offset="0.1" stop-color="#c6bdf7"/><stop offset="0.18" stop-color="#be94fb"/><stop offset="0.25" stop-color="#b668ff"/><stop offset="0.54" stop-color="#5a38c1"/><stop offset="0.75" stop-color="#1d1897"/><stop offset="1" stop-color="#0b1d9d"/></linearGradient><linearGradient id="linear-gradient-2" x1="558.02" y1="-43.15" x2="552.02" y2="168.85" xlink:href="#linear-gradient"/><linearGradient id="linear-gradient-3" x1="557.34" y1="-43.16" x2="551.34" y2="168.84" xlink:href="#linear-gradient"/><linearGradient id="linear-gradient-4" x1="556.67" y1="-43.18" x2="550.67" y2="168.82" xlink:href="#linear-gradient"/><linearGradient id="linear-gradient-5" x1="555.99" y1="-43.2" x2="549.99" y2="168.8" xlink:href="#linear-gradient"/><linearGradient id="linear-gradient-6" x1="555.32" y1="-43.22" x2="549.32" y2="168.78" xlink:href="#linear-gradient"/></defs><title>logo</title><path class="cls-1" d="M256.18,396.06a18.4,18.4,0,0,1,18.36,18.36v40.44a18.4,18.4,0,0,1-18.36,18.36H213.61v30.6H196.18V396.06Zm.93,58.8V414.42a.82.82,0,0,0-.93-.93H214.54a.82.82,0,0,0-.93.93v40.44a.82.82,0,0,0,.93.93h41.64A.82.82,0,0,0,257.11,454.86Z" transform="translate(-195.68 -333.88)"/><path class="cls-1" d="M345.32,396.06h17.42v58.8a18.39,18.39,0,0,1-18.36,18.36H302.74a18.28,18.28,0,0,1-18.35-18.36v-58.8h17.42v58.8a.82.82,0,0,0,.93.93h41.64a.83.83,0,0,0,.94-.93Z" transform="translate(-195.68 -333.88)"/><path class="cls-1" d="M395.07,396.06h42.84v17.43H395.07a.82.82,0,0,0-.93.93v58.8H376.71v-58.8a18.4,18.4,0,0,1,18.36-18.36Z" transform="translate(-195.68 -333.88)"/><path class="cls-1" d="M506.82,396.06a18.4,18.4,0,0,1,18.36,18.36v29H464.25v11.44a.82.82,0,0,0,.93.93h60v17.43h-60a18.4,18.4,0,0,1-18.36-18.36V414.42a18.4,18.4,0,0,1,18.36-18.36Zm-42.57,29.8h43.5V414.42a.82.82,0,0,0-.93-.93H465.18a.82.82,0,0,0-.93.93Z" transform="translate(-195.68 -333.88)"/><path class="cls-1" d="M613,396.06h20.09L590.5,473.22h-16L532.1,396.06h20.08l30.34,56Z" transform="translate(-195.68 -333.88)"/><path class="cls-1" d="M657.55,396.06h41.64a18.4,18.4,0,0,1,18.36,18.36v40.44a18.4,18.4,0,0,1-18.36,18.36H657.55a18.4,18.4,0,0,1-18.36-18.36V414.42a18.4,18.4,0,0,1,18.36-18.36Zm41.64,17.43H657.55a.82.82,0,0,0-.93.93v40.44a.82.82,0,0,0,.93.93h41.64a.82.82,0,0,0,.93-.93V414.42A.82.82,0,0,0,699.19,413.49Z" transform="translate(-195.68 -333.88)"/><path class="cls-1" d="M840.65,396.06h17.43v58.8a18.4,18.4,0,0,1-18.36,18.36H798.08a18.28,18.28,0,0,1-18.36-18.36v-58.8h17.43v58.8a.82.82,0,0,0,.93.93h41.64a.82.82,0,0,0,.93-.93Z" transform="translate(-195.68 -333.88)"/><path class="cls-1" d="M964.64,396.06A18.39,18.39,0,0,1,983,414.42v58.8H965.7v-58.8c0-.63-.35-.94-1.06-.94h-29c-.54,0-.8.31-.8.94v58.8H917.28v-58.8c0-.63-.27-.94-.8-.94H887.34a.83.83,0,0,0-.93.94v58.8H869V396.06Z" transform="translate(-195.68 -333.88)"/><path class="cls-1" d="M1053.51,396.06a18.39,18.39,0,0,1,18.36,18.36v29h-60.93v11.44a.82.82,0,0,0,.93.93h60v17.43h-60a18.4,18.4,0,0,1-18.36-18.36V414.42a18.39,18.39,0,0,1,18.36-18.36Zm-42.57,29.8h43.5V414.42a.83.83,0,0,0-.93-.94h-41.64a.83.83,0,0,0-.93.94Z" transform="translate(-195.68 -333.88)"/><g id="L_eq" data-name="L eq"><rect class="cls-2" x="531.22" y="119.12" width="45.27" height="17.47"/><rect class="cls-3" x="531.22" y="95.3" width="45.27" height="17.47"/><rect class="cls-4" x="531.22" y="71.47" width="45.27" height="17.47"/><rect class="cls-5" x="531.22" y="47.65" width="45.27" height="17.47"/><rect class="cls-6" x="531.22" y="23.82" width="45.27" height="17.47"/><rect class="cls-7" x="531.22" width="45.27" height="17.47"/></g></svg>